<?xml version="1.0" encoding="UTF-8"?>
<svg xmlns="http://www.w3.org/2000/svg" xmlns:xlink="http://www.w3.org/1999/xlink" viewBox="0 0 271.0683 680.4639">
  <g id="Warstwa_1" data-name="Warstwa 1">
    <g>
      <rect x="208.3794" y="394.4366" width="1.5743" height="2.5989"/>
      <path d="M209.9537,302.6958v5.0966h-1.5743v-5.0966h1.5743Zm0,10.1935v5.0966h-1.5743v-5.0966h1.5743Zm0,10.1932v5.0969h-1.5743v-5.0969h1.5743Zm0,10.1935v5.0969h-1.5743v-5.0969h1.5743Zm0,10.1936v5.0967h-1.5743v-5.0967h1.5743Zm0,10.1935v5.0966h-1.5743v-5.0966h1.5743Zm0,10.1933v5.0967h-1.5743v-5.0967h1.5743Zm0,10.1935v5.0967h-1.5743v-5.0967h1.5743Zm0,10.1935v5.0967h-1.5743v-5.0967h1.5743Z"/>
      <rect x="208.3794" y="295" width="1.5743" height="2.5989"/>
    </g>
    <g>
      <rect x="210.3807" y="139.0538" width="1.4603" height="2.7521" transform="translate(-.184 .2769) rotate(-.0751)"/>
      <path d="M65.5491,133.7174l-.0073-5.5674,1.4603-.0014,.0073,5.5674-1.4603,.0014Zm-.0146-11.1349l-.0073-5.5674,1.4603-.0014,.0073,5.5674-1.4603,.0014Zm-.0146-11.1349l-.0073-5.5674,1.4603-.0014,.0073,5.5674-1.4603,.0014Zm-.0146-11.1349l-.0073-5.5674,1.4603-.0014,.0073,5.5674-1.4603,.0014Zm-.0146-11.1347l-.0073-5.5675,1.4603-.0014,.0073,5.5675-1.4603,.0014Zm-.0146-11.1349l-.0073-5.5675,1.4603-.0014,.0073,5.5675-1.4603,.0014Zm-.0146-11.1349l-.0073-5.5675,1.4603-.0014,.0073,5.5675-1.4603,.0014Zm-.0146-11.1349l-.0073-5.5674,1.4603-.0014,.0073,5.5674-1.4603,.0014Zm-.0146-11.1349l-.0073-5.5674,1.4603-.0014,.0073,5.5674-1.4603,.0014Zm-.0137-11.1514c.0168-.2395,.2003-2.4306,1.5347-5.6028l1.4206,.1903c-1.3022,3.0961-1.4801,5.2128-1.4959,5.4439l-1.4594-.0314Zm4.5295-10.9761c1.2383-1.7661,2.7054-3.4699,4.3609-5.0639l1.2593,.4176c-1.6179,1.5576-3.0523,3.2231-4.2631,4.9501l-1.357-.3038Zm10.0923-9.6702c2.1348-1.4412,4.4993-2.7833,7.0285-3.989l.9411,.631c-2.465,1.1752-4.7697,2.4832-6.8499,3.8878l-1.1197-.5298Zm15.157-7.2349c2.7967-.9283,5.805-1.7534,8.9419-2.4522l.5343,.7682c-3.0665,.6831-6.0065,1.4891-8.7376,2.3958l-.7387-.7118ZM113.6027,1.4651c3.1044-.4291,6.3834-.7683,9.7457-1.0082l.1817,.8193c-3.3076,.2358-6.5315,.5691-9.5822,.9908l-.3452-.8019ZM133.2146,.0301c1.1037-.0189,2.236-.029,3.364-.03,.8414-.0008,1.6927,.0034,2.5541,.0127,1.3348,.0142,2.6744,.0402,3.9802,.0772l-.074,.8246c-1.2911-.0366-2.615-.0623-3.935-.0764-.8514-.009-1.6923-.0132-2.5241-.0124-1.1142,.001-2.2322,.0109-3.3222,.0297l-.0429-.8253Zm19.5429,1.3955l.2024-.8178c3.3544,.2635,6.6257,.6176,9.7232,1.0527l-.3536,.8012c-3.0475-.4281-6.268-.7767-9.572-1.0362Zm18.8539,2.685l.5276-.7702c3.1477,.6881,6.1691,1.4926,8.9796,2.3911l-.7197,.7188c-2.7491-.879-5.7054-1.6661-8.7875-2.3397Zm16.8216,5.413l.9156-.6435c2.5884,1.1769,5.0077,2.4841,7.1914,3.8854l-1.0964,.5461c-2.1285-1.366-4.487-2.6404-7.0107-3.788Zm12.7829,8.1993l1.2429-.4339c1.7205,1.577,3.2424,3.264,4.5233,5.0142l-1.3496,.3162c-1.2512-1.7096-2.7372-3.357-4.4167-4.8966Zm7.4435,10.1309l1.4182-.1972c1.1312,2.6093,1.477,4.6178,1.5826,5.5828l-1.4574,.0516c-.1027-.9373-.4397-2.8904-1.5435-5.4372Zm1.7122,105.6333l-.0073-5.5674,1.4603-.0014,.0073,5.5674-1.4603,.0014Zm-.0146-11.1349l-.0073-5.5674,1.4603-.0014,.0073,5.5674-1.4603,.0014Zm-.0146-11.1349l-.0073-5.5674,1.4603-.0014,.0073,5.5674-1.4603,.0014Zm-.0146-11.1349l-.0073-5.5674,1.4603-.0014,.0073,5.5674-1.4603,.0014Zm-.0146-11.1349l-.0073-5.5674,1.4603-.0014,.0073,5.5674-1.4603,.0014Zm-.0146-11.1347l-.0073-5.5675,1.4603-.0014,.0073,5.5675-1.4603,.0014Zm-.0146-11.1349l-.0073-5.5675,1.4603-.0014,.0073,5.5675-1.4603,.0014Zm-.0146-11.1349l-.0073-5.5675,1.4603-.0014,.0073,5.5675-1.4603,.0014Zm-.0146-11.1349l-.0073-5.5675,1.4603-.0014,.0073,5.5675-1.4603,.0014Z"/>
      <rect x="65.5583" y="139.3224" width="1.4603" height="2.7521" transform="translate(-.1844 .087) rotate(-.0751)"/>
    </g>
    <path d="M202.9719,161.8995l1.3852-.3924c.9637,2.4496,3.6576,4.0934,6.7034,4.0908l.0015,1.239c-3.6756,.0032-6.9268-1.9809-8.09-4.9374Zm2.9682-8.0715c1.4815-.9445,3.2463-1.4448,5.1042-1.4466,1.7481-.0015,3.4285,.4431,4.8594,1.2856l-.8325,1.0179c-1.1849-.6977-2.5767-1.0658-4.0254-1.0645-1.5394,.0016-3.0016,.4158-4.2284,1.1982l-.8773-.9906Zm5.3737,11.7662c3.044-.0938,5.6625-1.8234,6.5156-4.3038l1.4018,.3473c-1.0298,2.994-4.1902,5.0816-7.8645,5.1948l-.0528-1.2382Z"/>
    <path d="M58.4055,162.0266l1.3847-.3924c.9637,2.4494,3.6576,4.0932,6.7036,4.0906l.0015,1.239c-3.6759,.0032-6.9268-1.9809-8.0898-4.9372Zm2.9673-8.0719c1.481-.9443,3.2463-1.4446,5.1049-1.4464,1.7479-.0015,3.4283,.4431,4.8601,1.2858l-.8325,1.0179c-1.1854-.6977-2.5777-1.066-4.0261-1.0647-1.5401,.0016-3.0023,.4158-4.2287,1.198l-.8777-.9906Zm5.3739,11.7664c3.044-.0938,5.6625-1.8232,6.5161-4.3034l1.4018,.3473c-1.0302,2.9938-4.1907,5.0812-7.865,5.1944l-.0528-1.2382Z"/>
    <g>
      <rect x="60.7063" y="395.3511" width="1.5743" height="2.649"/>
      <path d="M62.2806,301.844v5.1947h-1.5743v-5.1947h1.5743Zm0,10.3897v5.1947h-1.5743v-5.1947h1.5743Zm0,10.3894v5.195h-1.5743v-5.195h1.5743Zm0,10.3897v5.195h-1.5743v-5.195h1.5743Zm0,10.3898v5.1949h-1.5743v-5.1949h1.5743Zm0,10.3897v5.1947h-1.5743v-5.1947h1.5743Zm0,10.3896v5.1949h-1.5743v-5.1949h1.5743Zm0,10.3897v5.1949h-1.5743v-5.1949h1.5743Zm0,10.3897v5.1949h-1.5743v-5.1949h1.5743Z"/>
      <rect x="60.7063" y="294" width="1.5743" height="2.649"/>
    </g>
    <g>
      <rect x="63.0042" y="538.658" width="1.4603" height="2.7521" transform="translate(-.7081 .084) rotate(-.0751)"/>
      <path d="M209.2961,546.7465l.0073,5.5674-1.4603,.0014-.0073-5.5674,1.4603-.0014Zm.0146,11.1349l.0073,5.5674-1.4603,.0014-.0073-5.5674,1.4603-.0014Zm.0146,11.1349l.0073,5.5674-1.4603,.0014-.0073-5.5674,1.4603-.0014Zm.0146,11.1349l.0073,5.5674-1.4603,.0014-.0073-5.5674,1.4603-.0014Zm.0146,11.1347l.0073,5.5675-1.4603,.0014-.0073-5.5675,1.4603-.0014Zm.0146,11.1349l.0073,5.5675-1.4603,.0014-.0073-5.5675,1.4603-.0014Zm.0146,11.1349l.0073,5.5675-1.4603,.0014-.0073-5.5675,1.4603-.0014Zm.0146,11.1349l.0073,5.5674-1.4603,.0014-.0073-5.5674,1.4603-.0014Zm.0146,11.1349l.0073,5.5674-1.4603,.0014-.0073-5.5674,1.4603-.0014Zm.0137,11.1514c-.0168,.2395-.2003,2.4306-1.5347,5.6028l-1.4206-.1903c1.3022-3.0961,1.4801-5.2128,1.4959-5.4439l1.4594,.0314Zm-4.5295,10.9761c-1.2383,1.7661-2.7054,3.4699-4.3609,5.0639l-1.2593-.4176c1.6179-1.5576,3.0523-3.2231,4.2631-4.9501l1.357,.3038Zm-10.0923,9.6702c-2.1348,1.4412-4.4993,2.7833-7.0285,3.989l-.9411-.631c2.465-1.1752,4.7697-2.4832,6.8499-3.8878l1.1197,.5298Zm-15.157,7.2349c-2.7967,.9283-5.805,1.7534-8.9419,2.4522l-.5343-.7682c3.0665-.6831,6.0065-1.4891,8.7376-2.3958l.7387,.7118Zm-18.4053,4.141c-3.1044,.4291-6.3834,.7683-9.7457,1.0082l-.1817-.8193c3.3076-.2358,6.5315-.5691,9.5822-.9908l.3452,.8019Zm-19.612,1.435c-1.1037,.0189-2.236,.029-3.364,.03-.8414,.0008-1.6927-.0034-2.5541-.0127-1.3348-.0142-2.6744-.0402-3.9802-.0772l.074-.8246c1.2911,.0366,2.615,.0623,3.935,.0764,.8514,.009,1.6923,.0132,2.5241,.0124,1.1142-.001,2.2322-.0109,3.3222-.0297l.0429,.8253Zm-19.5429-1.3955l-.2024,.8178c-3.3544-.2635-6.6257-.6176-9.7232-1.0527l.3536-.8012c3.0475,.4281,6.268,.7767,9.572,1.0362Zm-18.8539-2.685l-.5276,.7702c-3.1477-.6881-6.1691-1.4926-8.9796-2.3911l.7197-.7188c2.7491,.879,5.7054,1.6661,8.7875,2.3397Zm-16.8216-5.413l-.9156,.6435c-2.5884-1.1769-5.0077-2.4841-7.1914-3.8854l1.0964-.5461c2.1285,1.366,4.487,2.6404,7.0107,3.788Zm-12.7829-8.1993l-1.2429,.4339c-1.7205-1.577-3.2424-3.264-4.5233-5.0142l1.3496-.3162c1.2512,1.7096,2.7372,3.357,4.4167,4.8966Zm-7.4435-10.1309l-1.4182,.1972c-1.1312-2.6093-1.477-4.6178-1.5826-5.5828l1.4574-.0516c.1027,.9373,.4397,2.8904,1.5435,5.4372Zm-1.7122-105.6333l.0073,5.5674-1.4603,.0014-.0073-5.5674,1.4603-.0014Zm.0146,11.1349l.0073,5.5674-1.4603,.0014-.0073-5.5674,1.4603-.0014Zm.0146,11.1349l.0073,5.5674-1.4603,.0014-.0073-5.5674,1.4603-.0014Zm.0146,11.1349l.0073,5.5674-1.4603,.0014-.0073-5.5674,1.4603-.0014Zm.0146,11.1349l.0073,5.5674-1.4603,.0014-.0073-5.5674,1.4603-.0014Zm.0146,11.1347l.0073,5.5675-1.4603,.0014-.0073-5.5675,1.4603-.0014Zm.0146,11.1349l.0073,5.5675-1.4603,.0014-.0073-5.5675,1.4603-.0014Zm.0146,11.1349l.0073,5.5675-1.4603,.0014-.0073-5.5675,1.4603-.0014Zm.0146,11.1349l.0073,5.5675-1.4603,.0014-.0073-5.5675,1.4603-.0014Z"/>
      <rect x="207.8266" y="538.3894" width="1.4603" height="2.7521" transform="translate(-.7076 .2739) rotate(-.0751)"/>
    </g>
    <path d="M71.8733,518.5644l-1.3852,.3924c-.9637-2.4496-3.6576-4.0934-6.7034-4.0908l-.0015-1.239c3.6756-.0032,6.9268,1.9809,8.09,4.9374Zm-2.9682,8.0715c-1.4815,.9445-3.2463,1.4448-5.1042,1.4466-1.7481,.0015-3.4285-.4431-4.8594-1.2856l.8325-1.0179c1.1849,.6977,2.5767,1.0658,4.0254,1.0645,1.5394-.0016,3.0016-.4158,4.2284-1.1982l.8773,.9906Zm-5.3737-11.7662c-3.044,.0938-5.6625,1.8234-6.5156,4.3038l-1.4018-.3473c1.0298-2.994,4.1902-5.0816,7.8645-5.1948l.0528,1.2382Z"/>
    <path d="M216.4397,518.4373l-1.3847,.3924c-.9637-2.4494-3.6576-4.0932-6.7036-4.0906l-.0015-1.239c3.6759-.0032,6.9268,1.9809,8.0898,4.9372Zm-2.9673,8.0719c-1.481,.9443-3.2463,1.4446-5.1049,1.4464-1.7479,.0015-3.4283-.4431-4.8601-1.2858l.8325-1.0179c1.1854,.6977,2.5777,1.066,4.0261,1.0647,1.5401-.0016,3.0023-.4158,4.2287-1.198l.8777,.9906Zm-5.3739-11.7664c-3.044,.0938-5.6625,1.8232-6.5161,4.3034l-1.4018-.3473c1.0302-2.9938,4.1907-5.0812,7.865-5.1944l.0528,1.2382Z"/>
  </g>
  <g id="Warstwa_2" data-name="Warstwa 2">
    <image width="512" height="512" transform="translate(167.3766 397) scale(.1615)" xlink:href="Do strony/ikony/alarm.png"/>
    <image width="512" height="512" transform="translate(173.3766 166) scale(.1629)" xlink:href="Do strony/ikony/customer-support.png"/>
    <image width="512" height="512" transform="translate(20.3766 397) scale(.1629)" xlink:href="Do strony/ikony/cctv.png"/>
    <g>
      <path d="M183.5075,267.4073l1.1074-2.5063c.9609,.5679,2.2441,.9331,3.3652,.9331,.9766,0,1.3262-.2051,1.3262-.5547,0-1.2822-5.6387-.248-5.6387-4.0508,0-1.8945,1.5879-3.439,4.75-3.439,1.3701,0,2.7832,.2915,3.8477,.8887l-1.0352,2.4922c-1.0059-.5103-1.9531-.7578-2.8418-.7578-1.0059,0-1.3262,.2915-1.3262,.6411,0,1.2241,5.6396,.2041,5.6396,3.9639,0,1.8652-1.5889,3.4385-4.751,3.4385-1.7041,0-3.4238-.4229-4.4434-1.0488Z"/>
      <path d="M202.0612,265.003h-5.5381c.2344,.6123,.7871,.9326,1.6035,.9326,.7285,0,1.1367-.1895,1.6611-.583l1.7197,1.7334c-.7725,.8457-1.8945,1.2832-3.4824,1.2832-2.9297,0-4.8242-1.7637-4.8242-4.1387,0-2.4189,1.9385-4.124,4.5176-4.124,2.3613,0,4.3867,1.4282,4.3867,4.124,0,.2329-.0293,.5391-.0439,.7725Zm-5.5957-1.5884h2.5645c-.1309-.6704-.6123-1.064-1.2822-1.064-.6855,0-1.1514,.3936-1.2822,1.064Z"/>
      <path d="M208.8551,260.1065v2.9146c-.291-.0439-.4951-.0586-.7285-.0586-.9902,0-1.6895,.4521-1.6895,1.7197v3.5405h-3.2939v-7.9707h3.1338v.8599c.582-.6704,1.4707-1.0054,2.5781-1.0054Z"/>
      <path d="M223.6051,260.252l-2.7686,7.9707h-3.2061l-1.209-3.686-1.2539,3.686h-3.2051l-2.7695-7.9707h3.1191l1.3691,4.2114,1.4287-4.2114h2.7979l1.3848,4.2554,1.4277-4.2554h2.8848Z"/>
      <path d="M223.9176,257.9351c0-.9473,.7715-1.6758,1.9814-1.6758s1.9814,.6704,1.9814,1.6177c0,1.0054-.7715,1.7339-1.9814,1.7339s-1.9814-.7285-1.9814-1.6758Zm.334,2.3169h3.2939v7.9707h-3.2939v-7.9707Z"/>
      <path d="M228.5094,267.5821l.9033-2.1719c.7578,.4521,1.8359,.7148,2.7832,.7148,.8018,0,1.0205-.1465,1.0205-.3789,0-.8164-4.5908,.2773-4.5908-2.9146,0-1.501,1.3994-2.7251,4.0801-2.7251,1.166,0,2.4053,.2188,3.25,.6558l-.9033,2.1714c-.8164-.4517-1.6328-.583-2.3027-.583-.8457,0-1.0781,.1895-1.0781,.3789,0,.8306,4.5762-.2476,4.5762,2.9434,0,1.4424-1.3555,2.6963-4.125,2.6963-1.3691,0-2.7969-.3203-3.6133-.7871Z"/>
      <path d="M158.9411,283.2686l-.5244,.5684v1.8799h-3.2939v-10.8125h3.2939v5.1582l2.2881-2.3164h3.8906l-3.293,3.4531,3.5547,4.5176h-3.9785l-1.9375-2.4482Z"/>
      <path d="M164.7301,281.7246c0-2.4199,1.9385-4.125,4.6348-4.125,2.71,0,4.6328,1.7051,4.6328,4.125,0,2.418-1.9229,4.1377-4.6328,4.1377-2.6963,0-4.6348-1.7197-4.6348-4.1377Zm5.9316,0c0-1.0352-.5684-1.5596-1.2969-1.5596s-1.2969,.5244-1.2969,1.5596c0,1.0342,.5684,1.5732,1.2969,1.5732s1.2969-.5391,1.2969-1.5732Z"/>
      <path d="M188.7633,281.17v4.5469h-3.293v-3.9785c0-.9902-.3643-1.3691-.8887-1.3691-.583,0-1.0352,.3926-1.0352,1.457v3.8906h-3.293v-3.9785c0-.9902-.335-1.3691-.8887-1.3691-.583,0-1.0352,.3926-1.0352,1.457v3.8906h-3.293v-7.9707h3.1328v.7432c.5977-.5977,1.3848-.8896,2.2588-.8896,1.0342,0,1.9385,.3789,2.4922,1.21,.6416-.7725,1.5732-1.21,2.667-1.21,1.8066,0,3.1758,1.0645,3.1758,3.5703Z"/>
      <path d="M199.3639,281.7383c0,2.5645-1.7627,4.124-3.8467,4.124-.875,0-1.5449-.2178-2.0254-.6846v3.3662h-3.2939v-10.7979h3.1338v.6553c.4805-.5391,1.1943-.8018,2.1855-.8018,2.084,0,3.8467,1.5742,3.8467,4.1387Zm-3.3369,0c0-1.0342-.5684-1.5732-1.2969-1.5732s-1.2969,.5391-1.2969,1.5732c0,1.0352,.5684,1.5596,1.2969,1.5596s1.2969-.5244,1.2969-1.5596Z"/>
      <path d="M209.1168,277.7461v7.9707h-3.1328v-.7578c-.5977,.6123-1.3994,.9033-2.2588,.9033-1.9092,0-3.3516-1.1221-3.3516-3.7158v-4.4004h3.293v3.832c0,1.1367,.3936,1.5156,1.0342,1.5156,.5684,0,1.123-.4219,1.123-1.6035v-3.7441h3.293Z"/>
      <path d="M216.4508,285.4395c-.5098,.292-1.2539,.4229-2.0254,.4229-2.2012,0-3.4834-1.0342-3.4834-3.2354v-2.0391h-1.0928v-2.4043h1.0928v-2.2305h3.2939v2.2305h1.6309v2.4043h-1.6309v2.0098c0,.4961,.291,.7734,.6846,.7734,.2627,0,.5244-.0732,.7432-.2188l.7871,2.2871Z"/>
      <path d="M225.5016,282.4961h-5.5371c.2334,.6123,.7871,.9336,1.6035,.9336,.7285,0,1.1367-.1895,1.6602-.584l1.7207,1.7344c-.7734,.8457-1.8945,1.2822-3.4834,1.2822-2.9287,0-4.8232-1.7627-4.8232-4.1377,0-2.4199,1.9375-4.125,4.5176-4.125,2.3604,0,4.3857,1.4287,4.3857,4.125,0,.2324-.0283,.5391-.0439,.7715Zm-5.5957-1.5879h2.5645c-.1309-.6699-.6113-1.0645-1.2812-1.0645-.6855,0-1.1523,.3945-1.2832,1.0645Z"/>
      <path d="M232.2965,277.5996v2.915c-.291-.0439-.4961-.0586-.7285-.0586-.9912,0-1.6904,.4521-1.6904,1.7197v3.541h-3.2939v-7.9707h3.1338v.8594c.583-.6699,1.4717-1.0059,2.5791-1.0059Z"/>
      <path d="M232.736,281.7246c0-2.4199,1.9385-4.125,4.6348-4.125,2.71,0,4.6328,1.7051,4.6328,4.125,0,2.418-1.9229,4.1377-4.6328,4.1377-2.6963,0-4.6348-1.7197-4.6348-4.1377Zm5.9316,0c0-1.0352-.5684-1.5596-1.2969-1.5596s-1.2969,.5244-1.2969,1.5596c0,1.0342,.5684,1.5732,1.2969,1.5732s1.2969-.5391,1.2969-1.5732Z"/>
      <path d="M256.4196,277.7461l-2.7686,7.9707h-3.2061l-1.209-3.6865-1.2539,3.6865h-3.2051l-2.7695-7.9707h3.1191l1.3691,4.2109,1.4287-4.2109h2.7979l1.3848,4.2549,1.4277-4.2549h2.8848Z"/>
      <path d="M265.6501,277.7461l-3.2793,8.1309c-.874,2.1855-2.1562,2.8125-3.8477,2.8125-.873,0-1.8789-.2773-2.418-.7139l1.0928-2.2588c.3203,.248,.7725,.4219,1.165,.4219,.3945,0,.6416-.1152,.8164-.3203l-3.3516-8.0723h3.3809l1.6465,4.2695,1.6758-4.2695h3.1191Z"/>
    </g>
    <g>
      <path d="M187.57,493.8809h-3.876l-.6846,1.7773h-3.498l4.459-10.2002h3.3809l4.459,10.2002h-3.5547l-.6855-1.7773Zm-.9473-2.4775l-.9902-2.5645-.9912,2.5645h1.9814Z"/>
      <path d="M192.2672,484.8457h3.293v10.8125h-3.293v-10.8125Z"/>
      <path d="M204.904,491.3741v4.2842h-3.0605v-1.0488c-.3789,.8008-1.1367,1.1943-2.2588,1.1943-1.9521,0-2.958-1.1074-2.958-2.4775,0-1.5439,1.166-2.4043,3.6426-2.4043h1.3262c-.1016-.6113-.5684-.9326-1.501-.9326-.7139,0-1.5156,.2334-2.04,.627l-1.0488-2.1709c.9316-.583,2.3457-.9033,3.584-.9033,2.7402,0,4.3145,1.1797,4.3145,3.832Zm-3.2939,1.6904v-.5537h-.8154c-.7002,0-1.0059,.2334-1.0059,.6699,0,.3643,.291,.6416,.7871,.6416,.4512,0,.8594-.2334,1.0342-.7578Z"/>
      <path d="M212.0475,487.542v2.9141c-.292-.0439-.4951-.0586-.7285-.0586-.9912,0-1.6904,.4521-1.6904,1.7197v3.541h-3.293v-7.9707h3.1328v.8594c.582-.6699,1.4717-1.0049,2.5791-1.0049Z"/>
      <path d="M226.7096,491.1114v4.5469h-3.2939v-3.9785c0-.9902-.3633-1.3691-.8887-1.3691-.582,0-1.0342,.3936-1.0342,1.457v3.8906h-3.2939v-3.9785c0-.9902-.334-1.3691-.8887-1.3691-.582,0-1.0342,.3936-1.0342,1.457v3.8906h-3.2939v-7.9707h3.1338v.7432c.5967-.5977,1.3838-.8887,2.2588-.8887,1.0342,0,1.9375,.3779,2.4922,1.209,.6406-.7725,1.5732-1.209,2.666-1.209,1.8066,0,3.1768,1.0635,3.1768,3.5693Z"/>
      <path d="M236.8727,487.6875l-3.2793,8.1309c-.873,2.1855-2.1562,2.8125-3.8467,2.8125-.874,0-1.8799-.2764-2.4189-.7139l1.0938-2.2588c.3203,.248,.7715,.4229,1.165,.4229s.6416-.1172,.8154-.3213l-3.3516-8.0723h3.3809l1.6465,4.2695,1.6758-4.2695h3.1191Z"/>
    </g>
    <g>
      <path d="M15.9289,272.0332c0,2.3604-1.8071,3.8467-4.6489,3.8467h-1.4717v2.5068h-3.439v-10.2012h4.9106c2.8418,0,4.6489,1.4863,4.6489,3.8477Zm-3.4683,0c0-.7441-.4517-1.1953-1.3989-1.1953h-1.2534v2.3896h1.2534c.9473,0,1.3989-.4521,1.3989-1.1943Z"/>
      <path d="M16.5309,274.3936c0-2.4189,1.938-4.124,4.6338-4.124,2.7104,0,4.6338,1.7051,4.6338,4.124s-1.9233,4.1377-4.6338,4.1377c-2.6958,0-4.6338-1.7188-4.6338-4.1377Zm5.9307,0c0-1.0342-.5684-1.5596-1.2969-1.5596s-1.2969,.5254-1.2969,1.5596,.5684,1.5732,1.2969,1.5732,1.2969-.5391,1.2969-1.5732Z"/>
      <path d="M40.5641,273.8399v4.5469h-3.2935v-3.9785c0-.9912-.3643-1.3701-.8887-1.3701-.583,0-1.0347,.3936-1.0347,1.458v3.8906h-3.2935v-3.9785c0-.9912-.335-1.3701-.8887-1.3701-.583,0-1.0347,.3936-1.0347,1.458v3.8906h-3.2935v-7.9717h3.1333v.7432c.5972-.5977,1.3843-.8887,2.2583-.8887,1.0347,0,1.9385,.3789,2.4922,1.209,.6411-.7715,1.5737-1.209,2.6665-1.209,1.8071,0,3.1768,1.0645,3.1768,3.5703Z"/>
      <path d="M41.7213,274.3936c0-2.4189,1.938-4.124,4.6338-4.124,2.7104,0,4.6338,1.7051,4.6338,4.124s-1.9233,4.1377-4.6338,4.1377c-2.6958,0-4.6338-1.7188-4.6338-4.1377Zm5.9307,0c0-1.0342-.5684-1.5596-1.2969-1.5596s-1.2969,.5254-1.2969,1.5596,.5684,1.5732,1.2969,1.5732,1.2969-.5391,1.2969-1.5732Z"/>
      <path d="M51.6051,274.3936c0-2.4189,1.9526-4.124,4.7065-4.124,1.938,0,3.3955,.8887,3.9199,2.3613l-2.5498,1.252c-.3354-.7422-.8164-1.0488-1.3848-1.0488-.7432,0-1.355,.5254-1.355,1.5596,0,1.0498,.6118,1.5732,1.355,1.5732,.5684,0,1.0493-.3057,1.3848-1.0488l2.5498,1.2539c-.5244,1.4707-1.9819,2.3594-3.9199,2.3594-2.7539,0-4.7065-1.7041-4.7065-4.1377Z"/>
      <path d="M72.6813,275.9825v2.4043h-7.6069v-1.8945l3.2935-3.6719h-3.1768v-2.4053h7.3296v1.8945l-3.293,3.6729h3.4536Z"/>
      <path d="M82.4191,267.5743v10.8125h-3.1333v-.6562c-.481,.5391-1.1948,.8008-2.1855,.8008-2.084,0-3.8472-1.5732-3.8472-4.1377s1.7632-4.124,3.8472-4.124c.874,0,1.5444,.2188,2.0254,.6855v-3.3809h3.2935Zm-3.2354,6.8193c0-1.0342-.5684-1.5596-1.2969-1.5596s-1.2969,.5254-1.2969,1.5596,.5684,1.5732,1.2969,1.5732,1.2969-.5391,1.2969-1.5732Z"/>
      <path d="M91.7638,274.1016v4.2852h-3.0605v-1.0498c-.3784,.8018-1.1362,1.1943-2.2583,1.1943-1.9526,0-2.9585-1.1074-2.9585-2.4766,0-1.5449,1.166-2.4043,3.6431-2.4043h1.3262c-.1021-.6123-.5684-.9326-1.501-.9326-.7139,0-1.5156,.2334-2.04,.626l-1.0493-2.1709c.9326-.583,2.3462-.9033,3.585-.9033,2.7397,0,4.3135,1.1797,4.3135,3.832Zm-3.2935,1.6914v-.5547h-.8159c-.6997,0-1.0054,.2334-1.0054,.6709,0,.3643,.291,.6416,.7866,.6416,.4517,0,.8599-.2344,1.0347-.7578Z"/>
      <path d="M93.1955,267.5743h3.2935v10.8125h-3.2935v-10.8125Z"/>
      <path d="M106.7497,273.8399v4.5469h-3.2935v-3.9785c0-.9912-.3789-1.3701-.9761-1.3701-.6704,0-1.2388,.4229-1.2388,1.6025v3.7461h-3.2935v-7.9717h3.1333v.7871c.6265-.626,1.4717-.9326,2.4043-.9326,1.8359,0,3.2642,1.0645,3.2642,3.5703Z"/>
      <path d="M116.0656,274.1016v4.2852h-3.0605v-1.0498c-.3784,.8018-1.1362,1.1943-2.2583,1.1943-1.9526,0-2.9585-1.1074-2.9585-2.4766,0-1.5449,1.166-2.4043,3.6431-2.4043h1.3262c-.1021-.6123-.5684-.9326-1.501-.9326-.7139,0-1.5156,.2334-2.04,.626l-1.0493-2.1709c.9326-.583,2.3462-.9033,3.585-.9033,2.7397,0,4.3135,1.1797,4.3135,3.832Zm-3.2935,1.6914v-.5547h-.8159c-.6997,0-1.0054,.2334-1.0054,.6709,0,.3643,.291,.6416,.7866,.6416,.4517,0,.8599-.2344,1.0347-.7578Z"/>
    </g>
    <g>
      <path d="M42.153,486.5596l-.0288-4.6484-2.2153,3.7305h-1.5151l-2.2153-3.5703v4.4883h-3.1328v-10.2002h2.8271l3.3223,5.4355,3.2349-5.4355h2.8271l.0293,10.2002h-3.1333Z"/>
      <path d="M46.4284,482.5664c0-2.4189,1.938-4.123,4.6338-4.123,2.7104,0,4.6338,1.7041,4.6338,4.123s-1.9233,4.1387-4.6338,4.1387c-2.6958,0-4.6338-1.7197-4.6338-4.1387Zm5.9307,0c0-1.0342-.5684-1.5586-1.2969-1.5586s-1.2969,.5244-1.2969,1.5586c0,1.0352,.5684,1.5742,1.2969,1.5742s1.2969-.5391,1.2969-1.5742Z"/>
      <path d="M65.5363,482.0127v4.5469h-3.2935v-3.9785c0-.9902-.3789-1.3691-.9761-1.3691-.6704,0-1.2388,.4219-1.2388,1.6025v3.7451h-3.2935v-7.9707h3.1333v.7871c.6265-.627,1.4717-.9326,2.4043-.9326,1.8359,0,3.2642,1.0635,3.2642,3.5693Z"/>
      <path d="M72.841,486.2823c-.5098,.292-1.2529,.4229-2.0254,.4229-2.2002,0-3.4829-1.0342-3.4829-3.2344v-2.041h-1.0928v-2.4043h1.0928v-2.2295h3.2935v2.2295h1.6318v2.4043h-1.6318v2.0117c0,.4951,.2915,.7725,.6851,.7725,.2622,0,.5244-.0732,.7432-.2188l.7866,2.2871Z"/>
      <path d="M81.5578,482.2754v4.2842h-3.0605v-1.0488c-.3784,.8008-1.1362,1.1943-2.2583,1.1943-1.9526,0-2.9585-1.1074-2.9585-2.4766,0-1.5449,1.166-2.4053,3.6431-2.4053h1.3262c-.1021-.6113-.5684-.9326-1.501-.9326-.7139,0-1.5156,.2334-2.04,.627l-1.0493-2.1709c.9326-.583,2.3462-.9033,3.585-.9033,2.7397,0,4.3135,1.1797,4.3135,3.832Zm-3.2935,1.6904v-.5537h-.8159c-.6997,0-1.0054,.2334-1.0054,.6699,0,.3643,.291,.6416,.7866,.6416,.4517,0,.8599-.2334,1.0347-.7578Z"/>
      <path d="M90.3048,484.1553v2.4043h-7.6069v-1.8945l3.2935-3.6719h-3.1768v-2.4043h7.3296v1.8945l-3.293,3.6719h3.4536Zm-5.479-7.9561c0-.9766,.6846-1.6621,1.6611-1.6621s1.6611,.6855,1.6611,1.6621c0,.9756-.6851,1.6611-1.6611,1.6611-.9766,0-1.6611-.6855-1.6611-1.6611Z"/>
      <path d="M26.4147,499.5069v4.5469h-3.2935v-3.9785c0-.9902-.3643-1.3691-.8887-1.3691-.583,0-1.0347,.3936-1.0347,1.457v3.8906h-3.2935v-3.9785c0-.9902-.335-1.3691-.8887-1.3691-.583,0-1.0347,.3936-1.0347,1.457v3.8906h-3.2935v-7.9707h3.1333v.7432c.5972-.5977,1.3843-.8887,2.2583-.8887,1.0347,0,1.9385,.3779,2.4922,1.209,.6411-.7725,1.5737-1.209,2.6665-1.209,1.8071,0,3.1768,1.0635,3.1768,3.5693Z"/>
      <path d="M27.5719,500.0606c0-2.4189,1.938-4.123,4.6338-4.123,2.7104,0,4.6338,1.7041,4.6338,4.123s-1.9233,4.1387-4.6338,4.1387c-2.6958,0-4.6338-1.7197-4.6338-4.1387Zm5.9307,0c0-1.0342-.5684-1.5586-1.2969-1.5586s-1.2969,.5244-1.2969,1.5586c0,1.0352,.5684,1.5742,1.2969,1.5742s1.2969-.5391,1.2969-1.5742Z"/>
      <path d="M46.6798,499.5069v4.5469h-3.2935v-3.9785c0-.9902-.3789-1.3691-.9761-1.3691-.6704,0-1.2388,.4219-1.2388,1.6025v3.7451h-3.2935v-7.9707h3.1333v.7871c.6265-.627,1.4717-.9326,2.4043-.9326,1.8359,0,3.2642,1.0635,3.2642,3.5693Z"/>
      <path d="M47.777,493.7657c0-.9473,.7725-1.6758,1.9819-1.6758s1.9814,.6709,1.9814,1.6172c0,1.0059-.772,1.7344-1.9814,1.7344s-1.9819-.7285-1.9819-1.6758Zm.335,2.3174h3.2935v7.9707h-3.2935v-7.9707Z"/>
      <path d="M58.737,503.7764c-.5098,.292-1.2529,.4229-2.0254,.4229-2.2002,0-3.4829-1.0342-3.4829-3.2344v-2.041h-1.0928v-2.4043h1.0928v-2.2295h3.2935v2.2295h1.6318v2.4043h-1.6318v2.0117c0,.4951,.2915,.7725,.6851,.7725,.2622,0,.5244-.0732,.7432-.2188l.7866,2.2871Z"/>
      <path d="M58.9293,500.0606c0-2.4189,1.938-4.123,4.6338-4.123,2.7104,0,4.6338,1.7041,4.6338,4.123s-1.9233,4.1387-4.6338,4.1387c-2.6958,0-4.6338-1.7197-4.6338-4.1387Zm5.9307,0c0-1.0342-.5684-1.5586-1.2969-1.5586s-1.2969,.5244-1.2969,1.5586c0,1.0352,.5684,1.5742,1.2969,1.5742s1.2969-.5391,1.2969-1.5742Z"/>
      <path d="M74.9479,495.9375v2.9141c-.2915-.0439-.4956-.0586-.7285-.0586-.9912,0-1.6904,.4521-1.6904,1.7197v3.541h-3.2935v-7.9707h3.1333v.8594c.5825-.6699,1.4717-1.0049,2.5791-1.0049Z"/>
      <path d="M75.548,493.7657c0-.9473,.772-1.6758,1.9819-1.6758s1.9814,.6709,1.9814,1.6172c0,1.0059-.772,1.7344-1.9814,1.7344s-1.9819-.7285-1.9819-1.6758Zm.335,2.3174h3.2935v7.9707h-3.2935v-7.9707Z"/>
      <path d="M89.4372,499.5069v4.5469h-3.2935v-3.9785c0-.9902-.3789-1.3691-.9761-1.3691-.6704,0-1.2388,.4219-1.2388,1.6025v3.7451h-3.2935v-7.9707h3.1333v.7871c.6265-.627,1.4717-.9326,2.4043-.9326,1.8359,0,3.2642,1.0635,3.2642,3.5693Z"/>
      <path d="M99.9186,496.083v6.3828c0,3.0889-1.8071,4.5605-4.8525,4.5605-1.5737,0-3.002-.335-3.9927-.9912l1.1074-2.2441c.6265,.4814,1.6904,.7871,2.5498,.7871,1.3555,0,1.8945-.5977,1.8945-1.6611v-.1455c-.4956,.5684-1.2241,.8447-2.2002,.8447-2.0259,0-3.8325-1.4863-3.8325-3.8467s1.8066-3.832,3.8325-3.832c1.0928,0,1.8652,.335,2.3604,1.0488v-.9033h3.1333Zm-3.2642,3.6865c0-.7725-.583-1.2676-1.3555-1.2676-.772,0-1.3696,.4951-1.3696,1.2676s.5977,1.2822,1.3696,1.2822c.7725,0,1.3555-.5098,1.3555-1.2822Z"/>
      <path d="M110.0944,496.083v7.9707h-3.1333v-.7578c-.5972,.6123-1.3989,.9033-2.2583,.9033-1.9092,0-3.3516-1.1221-3.3516-3.7158v-4.4004h3.293v3.832c0,1.1367,.3936,1.5156,1.0347,1.5156,.5684,0,1.1221-.4229,1.1221-1.6025v-3.7451h3.2935Z"/>
    </g>
    <image width="512" height="512" transform="translate(22.3766 172) scale(.1613)" xlink:href="Do strony/ikony/computer.png"/>
  </g>
</svg>